REM DIRINDEX 1\3,1\4,1\5,1\6,1\2\7,1\2\8,1\2\9,1\2\10,1\2\11
REM DIRNAME cjc021,folder01,folder02,folder03,folder04,folder05,folder06,folder07,folder08,folder09,folder10
TITLE ""
FILE "DISC5Track02.mp3" MP3
  TRACK 01 AUDIO
    TITLE "0:"
    INDEX 01 00:00:00
  TRACK 02 AUDIO
    TITLE "3:cjc021_4843"
    INDEX 01 00:00:23
  TRACK 03 AUDIO
    TITLE "0:"
    INDEX 01 00:01:32
  TRACK 04 AUDIO
    TITLE "4:cjc021_4844"
    INDEX 01 00:03:10
  TRACK 05 AUDIO
    TITLE "0:"
    INDEX 01 00:04:17
  TRACK 06 AUDIO
    TITLE "5:cjc021_4845"
    INDEX 01 00:04:54
  TRACK 07 AUDIO
    TITLE "0:"
    INDEX 01 00:07:54
  TRACK 08 AUDIO
    TITLE "3:cjc021_4846"
    INDEX 01 00:09:16
  TRACK 09 AUDIO
    TITLE "0:"
    INDEX 01 00:10:14
  TRACK 10 AUDIO
    TITLE "4:cjc021_4847"
    INDEX 01 00:11:64
  TRACK 11 AUDIO
    TITLE "0:"
    INDEX 01 00:12:60
  TRACK 12 AUDIO
    TITLE "5:cjc021_4848"
    INDEX 01 00:13:20
  TRACK 13 AUDIO
    TITLE "0:"
    INDEX 01 00:15:19
  TRACK 14 AUDIO
    TITLE "3:cjc021_4849"
    INDEX 01 00:16:59
  TRACK 15 AUDIO
    TITLE "0:"
    INDEX 01 00:17:61
  TRACK 16 AUDIO
    TITLE "4:cjc021_4850"
    INDEX 01 00:19:38
  TRACK 17 AUDIO
    TITLE "0:"
    INDEX 01 00:20:41
  TRACK 18 AUDIO
    TITLE "5:cjc021_4851"
    INDEX 01 00:21:02
  TRACK 19 AUDIO
    TITLE "0:"
    INDEX 01 00:23:55
  TRACK 20 AUDIO
    TITLE "3:cjc021_4852"
    INDEX 01 00:25:17
  TRACK 21 AUDIO
    TITLE "0:"
    INDEX 01 00:26:20
  TRACK 22 AUDIO
    TITLE "4:cjc021_4853"
    INDEX 01 00:27:71
  TRACK 23 AUDIO
    TITLE "0:"
    INDEX 01 00:28:74
  TRACK 24 AUDIO
    TITLE "5:cjc021_4854"
    INDEX 01 00:29:34
  TRACK 25 AUDIO
    TITLE "0:"
    INDEX 01 00:31:20
  TRACK 26 AUDIO
    TITLE "3:cjc021_4855"
    INDEX 01 00:32:60
  TRACK 27 AUDIO
    TITLE "0:"
    INDEX 01 00:33:64
  TRACK 28 AUDIO
    TITLE "4:cjc021_4856"
    INDEX 01 00:35:43
  TRACK 29 AUDIO
    TITLE "0:"
    INDEX 01 00:36:50
  TRACK 30 AUDIO
    TITLE "5:cjc021_4857"
    INDEX 01 00:37:12
  TRACK 31 AUDIO
    TITLE "0:"
    INDEX 01 00:39:05
  TRACK 32 AUDIO
    TITLE "3:cjc021_4858"
    INDEX 01 00:40:42
  TRACK 33 AUDIO
    TITLE "0:"
    INDEX 01 00:41:51
  TRACK 34 AUDIO
    TITLE "4:cjc021_4859"
    INDEX 01 00:43:27
  TRACK 35 AUDIO
    TITLE "0:"
    INDEX 01 00:44:34
  TRACK 36 AUDIO
    TITLE "5:cjc021_4860"
    INDEX 01 00:44:71
  TRACK 37 AUDIO
    TITLE "0:"
    INDEX 01 00:46:68
  TRACK 38 AUDIO
    TITLE "3:cjc021_4861"
    INDEX 01 00:48:36
  TRACK 39 AUDIO
    TITLE "0:"
    INDEX 01 00:49:41
  TRACK 40 AUDIO
    TITLE "4:cjc021_4862"
    INDEX 01 00:51:18
  TRACK 41 AUDIO
    TITLE "0:"
    INDEX 01 00:52:22
  TRACK 42 AUDIO
    TITLE "5:cjc021_4863"
    INDEX 01 00:52:61
  TRACK 43 AUDIO
    TITLE "0:"
    INDEX 01 00:55:55
  TRACK 44 AUDIO
    TITLE "3:cjc021_4864"
    INDEX 01 00:57:17
  TRACK 45 AUDIO
    TITLE "0:"
    INDEX 01 00:58:58
  TRACK 46 AUDIO
    TITLE "4:cjc021_4865"
    INDEX 01 01:00:35
  TRACK 47 AUDIO
    TITLE "0:"
    INDEX 01 01:02:01
  TRACK 48 AUDIO
    TITLE "5:cjc021_4866"
    INDEX 01 01:02:40
  TRACK 49 AUDIO
    TITLE "0:"
    INDEX 01 01:05:34
  TRACK 50 AUDIO
    TITLE "3:cjc021_4867"
    INDEX 01 01:07:00
  TRACK 51 AUDIO
    TITLE "0:"
    INDEX 01 01:08:05
  TRACK 52 AUDIO
    TITLE "4:cjc021_4868"
    INDEX 01 01:09:59
  TRACK 53 AUDIO
    TITLE "0:"
    INDEX 01 01:10:65
  TRACK 54 AUDIO
    TITLE "5:cjc021_4869"
    INDEX 01 01:11:29
  TRACK 55 AUDIO
    TITLE "0:"
    INDEX 01 01:13:57
  TRACK 56 AUDIO
    TITLE "3:cjc021_4870"
    INDEX 01 01:15:21
  TRACK 57 AUDIO
    TITLE "0:"
    INDEX 01 01:16:20
  TRACK 58 AUDIO
    TITLE "4:cjc021_4871"
    INDEX 01 01:17:71
  TRACK 59 AUDIO
    TITLE "0:"
    INDEX 01 01:18:68
  TRACK 60 AUDIO
    TITLE "5:cjc021_4872"
    INDEX 01 01:19:30
  TRACK 61 AUDIO
    TITLE "0:"
    INDEX 01 01:22:05
